<svg width="22" height="22" viewBox="0 0 22 22" fill="none" xmlns="http://www.w3.org/2000/svg">
<path d="M11 0C4.9346 0.00109995 0 4.93545 0 11.0006C0 17.0645 4.9346 21.9989 11 22C17.0654 22 22 17.0656 22 11.0006C22 4.93545 17.0665 0.00109995 11 0ZM11 19.8001C6.1479 19.799 2.2 15.8513 2.2 11.0006C2.2 6.14869 6.1479 2.20099 11 2.19989C15.8521 2.20099 19.8 6.14869 19.8 11.0006C19.8 15.8524 15.8521 19.8001 11 19.8001Z" fill="#2EA3F2"/>
<path d="M12.0997 6.60736L9.89974 6.60736L9.89974 11.0071L6.58984 11.0071L10.9953 15.4124L15.3997 11.0071H12.0997L12.0997 6.60736Z" fill="#2EA3F2"/>
</svg>
