<svg width="22" height="22" viewBox="0 0 22 22" fill="none" xmlns="http://www.w3.org/2000/svg">
<path d="M11 22C17.0654 21.9989 22 17.0645 22 10.9994C22 4.93545 17.0654 0.00109863 11 0C4.9346 0 0 4.93435 0 10.9994C0 17.0645 4.9335 21.9989 11 22ZM11 2.19989C15.8521 2.20099 19.8 6.14869 19.8 10.9994C19.8 15.8513 15.8521 19.799 11 19.8001C6.1479 19.799 2.2 15.8513 2.2 10.9994C2.2 6.14759 6.1479 2.19989 11 2.19989Z" fill="#2EA3F2"/>
<path d="M9.90026 15.3926H12.1003V10.9929H15.4102L11.0047 6.58758L6.60025 10.9929H9.90026V15.3926Z" fill="#2EA3F2"/>
</svg>
