<svg width="25" height="25" viewBox="0 0 25 25" fill="none" xmlns="http://www.w3.org/2000/svg">
<path d="M12.5 24.5C19.1274 24.5 24.5 19.1274 24.5 12.5C24.5 5.87258 19.1274 0.5 12.5 0.5C5.87258 0.5 0.5 5.87258 0.5 12.5C0.5 19.1274 5.87258 24.5 12.5 24.5Z" fill="#F0F0F0"/>
<path d="M11.9783 12.5H24.5C24.5 11.4169 24.3556 10.3677 24.0866 9.36954H11.9783V12.5Z" fill="#D80027"/>
<path d="M11.9783 6.23913H22.7387C22.0041 5.04045 21.0649 3.98093 19.9698 3.10868H11.9783V6.23913Z" fill="#D80027"/>
<path d="M12.5 24.5C15.3241 24.5 17.9199 23.5239 19.9698 21.8913H5.03015C7.08 23.5239 9.67579 24.5 12.5 24.5Z" fill="#D80027"/>
<path d="M2.26122 18.7609H22.7387C23.3284 17.7986 23.7858 16.7467 24.0866 15.6304H0.91333C1.21413 16.7467 1.67149 17.7986 2.26122 18.7609Z" fill="#D80027"/>
<path d="M6.05863 2.37397H7.15217L6.13498 3.11295L6.52353 4.30869L5.50639 3.5697L4.48925 4.30869L4.82487 3.2757C3.92928 4.02172 3.14431 4.89575 2.49744 5.86963H2.84783L2.20034 6.34002C2.09947 6.5083 2.00272 6.67925 1.91 6.85273L2.21919 7.80434L1.64234 7.38523C1.49895 7.68903 1.3678 7.99967 1.24991 8.31678L1.59055 9.36528H2.84783L1.83064 10.1043L2.21919 11.3L1.20205 10.561L0.592766 11.0037C0.531781 11.4939 0.5 11.9932 0.5 12.5H12.5C12.5 5.87262 12.5 5.09131 12.5 0.5C10.1294 0.5 7.91961 1.18766 6.05863 2.37397ZM6.52353 11.3L5.50639 10.561L4.48925 11.3L4.8778 10.1043L3.86061 9.36528H5.11789L5.50639 8.16955L5.89489 9.36528H7.15217L6.13498 10.1043L6.52353 11.3ZM6.13498 6.60861L6.52353 7.80434L5.50639 7.06536L4.48925 7.80434L4.8778 6.60861L3.86061 5.86963H5.11789L5.50639 4.67389L5.89489 5.86963H7.15217L6.13498 6.60861ZM10.8279 11.3L9.81073 10.561L8.79359 11.3L9.18214 10.1043L8.16495 9.36528H9.42223L9.81073 8.16955L10.1992 9.36528H11.4565L10.4393 10.1043L10.8279 11.3ZM10.4393 6.60861L10.8279 7.80434L9.81073 7.06536L8.79359 7.80434L9.18214 6.60861L8.16495 5.86963H9.42223L9.81073 4.67389L10.1992 5.86963H11.4565L10.4393 6.60861ZM10.4393 3.11295L10.8279 4.30869L9.81073 3.5697L8.79359 4.30869L9.18214 3.11295L8.16495 2.37397H9.42223L9.81073 1.17823L10.1992 2.37397H11.4565L10.4393 3.11295Z" fill="#0052B4"/>
</svg>
