<?xml version="1.0" encoding="UTF-8"?>
<svg id="SVGDoc" width="23" height="23" xmlns="http://www.w3.org/2000/svg" version="1.1" xmlns:xlink="http://www.w3.org/1999/xlink" xmlns:avocode="https://avocode.com/" viewBox="0 0 23 23"><defs></defs><desc>Generated with Avocode.</desc><g><g><title>outlook</title><g><title>Grupo 8726</title><g><title>Grupo 8725</title><g><title>Caminho 394</title><path d="M22.2807,4.60019c0.0957,0.0012 0.1902,0.02201 0.2782,0.06123c0.0879,0.03922 0.1676,0.09609 0.2344,0.16735c0.0668,0.07127 0.1194,0.15552 0.1549,0.24796c0.0354,0.09243 0.053,0.19123 0.0517,0.29074v12.26543c0.0013,0.0995 -0.0163,0.1983 -0.0517,0.2907c-0.0355,0.0925 -0.0881,0.1767 -0.1549,0.248c-0.0668,0.0712 -0.1465,0.1281 -0.2344,0.1673c-0.088,0.0392 -0.1825,0.0601 -0.2782,0.0613h-9.3432v3.8317c0.0003,0.1122 -0.0227,0.2231 -0.0676,0.3251c-0.0449,0.102 -0.1106,0.1926 -0.1925,0.2656c-0.1277,0.1136 -0.2902,0.1762 -0.4582,0.1766c-0.0446,0.0001 -0.089,-0.0045 -0.1327,-0.0138l-11.49996,-2.3c-0.1666,-0.035 -0.31626,-0.1293 -0.42329,-0.2666c-0.10703,-0.1374 -0.16473,-0.3092 -0.16321,-0.4859v-16.86542c-0.0019,-0.17697 0.05565,-0.34908 0.16272,-0.48664c0.10707,-0.13755 0.25695,-0.23193 0.42378,-0.26684l11.49996,-2.3c0.1039,-0.02161 0.2112,-0.01817 0.3136,0.01006c0.1025,0.02823 0.1973,0.08049 0.2773,0.15278c0.082,0.07292 0.1477,0.16352 0.1926,0.26552c0.0449,0.102 0.068,0.21294 0.0675,0.32512v3.83271zM10.0643,12.2665c0,-2.5364 -1.61268,-4.59996 -3.59421,-4.59996c-1.98153,0 -3.59417,2.06356 -3.59417,4.59996c0,2.5365 1.61264,4.6 3.59329,4.6c1.98064,0 3.59509,-2.0635 3.59509,-4.6zM12.9401,7.87538l2.8308,1.92096l4.416,-3.66251h-7.2485zM21.5624,6.93239l-5.3076,4.40491c-0.1163,0.0966 -0.2589,0.1526 -0.4076,0.16c-0.1486,0.0074 -0.2958,-0.034 -0.4204,-0.1186l-2.4884,-1.68816v7.17596h8.6249z" fill="#007dc5" fill-opacity="1"></path></g></g></g><g><title>Grupo 8728</title><g><title>Grupo 8727</title><g><title>Elipse 20</title><path d="M6.48234,15.35686c1.20527,0 2.18233,-1.38273 2.18233,-3.08843c0,-1.70569 -0.97706,-3.08843 -2.18233,-3.08843c-1.20528,0 -2.18234,1.38274 -2.18234,3.08843c0,1.7057 0.97706,3.08843 2.18234,3.08843z" fill="#007dc5" fill-opacity="1"></path></g></g></g></g></g></svg>