<svg width="17" height="36" viewBox="0 0 17 36" fill="none" xmlns="http://www.w3.org/2000/svg">
<path d="M16.2884 7.72018L9.06617 0.220154C8.93075 0.0795288 8.74739 0.000427246 8.55551 0.000427246H-6.61116C-8.2044 0.000427246 -9.5 1.34586 -9.5 3.00045V33.0005C-9.5 34.655 -8.2044 36.0004 -6.61109 36.0004H13.6112C15.2044 36.0004 16.5 34.655 16.5 33.0004V8.2504C16.5 8.05121 16.4238 7.8608 16.2884 7.72018ZM9.27776 2.561L14.0343 7.50045H10.7222C9.92593 7.50045 9.27776 6.82735 9.27776 6.00047V2.561ZM15.0556 33.0004C15.0556 33.8273 14.4074 34.5004 13.6112 34.5004H-6.61109C-7.40734 34.5004 -8.05551 33.8273 -8.05551 33.0004V3.00045C-8.05551 2.17358 -7.40734 1.50047 -6.61109 1.50047H7.83333V6.00047C7.83333 7.655 9.12893 9.00043 10.7222 9.00043H15.0556V33.0004Z" fill="#00ADA8"/>
<path d="M7.18297 22.0177C6.51435 21.4713 5.87891 20.9096 5.45573 20.4701C4.9056 19.8988 4.41539 19.3451 3.98944 18.8178C4.65386 16.6857 4.94514 15.5864 4.94514 15.0004C4.94514 12.5109 4.07902 12.0004 2.77847 12.0004C1.79034 12.0004 0.611807 12.5335 0.611807 15.0722C0.611807 16.1913 1.20216 17.55 2.37222 19.1291C2.08589 20.0365 1.74944 21.0832 1.37143 22.2631C1.18943 22.8293 0.99199 23.3536 0.783178 23.8385C0.61323 23.9169 0.448157 23.9967 0.288771 24.0795C-0.285328 24.3776 -0.830515 24.6456 -1.33623 24.8947C-3.64258 26.0285 -5.16602 26.7785 -5.16602 28.2594C-5.16602 29.3346 -4.04104 30.0004 -2.99935 30.0004C-1.65649 30.0004 0.37124 28.1378 1.85236 25.0001C3.38988 24.3702 5.30129 23.9036 6.8099 23.6114C8.01876 24.5767 9.3539 25.5004 10.0007 25.5004C11.7914 25.5004 12.1673 24.4251 12.1673 23.5235C12.1673 21.7503 10.2164 21.7503 9.27841 21.7503C8.98713 21.7504 8.2057 21.8398 7.18297 22.0177ZM-2.99935 28.5004C-3.41196 28.5004 -3.69126 28.2982 -3.72159 28.2594C-3.72159 27.7276 -2.19464 26.9762 -0.717713 26.2497C-0.623938 26.2036 -0.528671 26.1574 -0.432051 26.1098C-1.51681 27.7431 -2.58958 28.5004 -2.99935 28.5004ZM2.05623 15.0722C2.05623 13.5004 2.52599 13.5004 2.77847 13.5004C3.28913 13.5004 3.50072 13.5004 3.50072 15.0004C3.50072 15.3168 3.29759 16.1078 2.92588 17.3427C2.35875 16.436 2.05623 15.6589 2.05623 15.0722ZM2.60988 23.1332C2.65504 23.0029 2.69878 22.871 2.7411 22.7377C3.00909 21.9028 3.25033 21.1527 3.46544 20.4774C3.76519 20.8202 4.08822 21.1711 4.43455 21.5307C4.56997 21.6713 4.90567 21.9877 5.35288 22.3839C4.46265 22.5853 3.51548 22.8351 2.60988 23.1332ZM10.7229 23.5236C10.7229 23.8605 10.7229 24.0004 10.0529 24.0048C9.85609 23.9609 9.40116 23.6826 8.83972 23.2856C9.04353 23.2622 9.19377 23.2504 9.27841 23.2504C10.3456 23.2504 10.6481 23.3588 10.7229 23.5236Z" fill="#00ADA8"/>
</svg>
