<?xml version="1.0" encoding="UTF-8"?>
<svg id="SVGDoc" width="28" height="20" xmlns="http://www.w3.org/2000/svg" version="1.1" xmlns:xlink="http://www.w3.org/1999/xlink" xmlns:avocode="https://avocode.com/" viewBox="0 0 28 20"><defs></defs><desc>Generated with Avocode.</desc><g><g><title>Caminho 393</title><path d="M25.3755,0.00019c0.6871,-0.00815 1.3494,0.25054 1.8414,0.71926c0.4921,0.46872 0.7737,1.10917 0.7831,1.78069v14.99976c-0.0094,0.6715 -0.291,1.3119 -0.7831,1.7807c-0.492,0.4687 -1.1543,0.7274 -1.8414,0.7192h-22.75104c-0.68704,0.0082 -1.34932,-0.2505 -1.84139,-0.7192c-0.49207,-0.4688 -0.77371,-1.1092 -0.78307,-1.7807v-14.99976c0.00937,-0.67152 0.29101,-1.31197 0.78307,-1.78069c0.49207,-0.46873 1.15434,-0.72741 1.84139,-0.71926zM5.71523,1.66647l8.28477,6.22831l8.2848,-6.22831zM24.5,4.41169l-10.5,7.69351l-10.5,-7.69457v13.92287h21z" fill="#ed1c24" fill-opacity="1"></path></g></g></svg>