<svg width="25" height="25" viewBox="0 0 25 25" fill="none" xmlns="http://www.w3.org/2000/svg">
<path d="M12.5 24.5C19.1274 24.5 24.5 19.1274 24.5 12.5C24.5 5.87258 19.1274 0.5 12.5 0.5C5.87258 0.5 0.5 5.87258 0.5 12.5C0.5 19.1274 5.87258 24.5 12.5 24.5Z" fill="#6DA544"/>
<path d="M12.4999 5.19565L22.413 12.5L12.4999 19.8043L2.58691 12.5L12.4999 5.19565Z" fill="#FFDA44"/>
<path d="M12.5001 16.6739C14.8052 16.6739 16.674 14.8052 16.674 12.5C16.674 10.1948 14.8052 8.32612 12.5001 8.32612C10.1949 8.32612 8.32617 10.1948 8.32617 12.5C8.32617 14.8052 10.1949 16.6739 12.5001 16.6739Z" fill="#F0F0F0"/>
<path d="M10.413 12.2391C9.68719 12.2391 8.98674 12.3495 8.32739 12.5544C8.3566 14.8344 10.213 16.6739 12.5 16.6739C13.9141 16.6739 15.163 15.97 15.9181 14.8942C14.6263 13.2771 12.6388 12.2391 10.413 12.2391Z" fill="#0052B4"/>
<path d="M16.5965 13.2997C16.6468 13.0408 16.6739 12.7736 16.6739 12.5C16.6739 10.1948 14.8052 8.32612 12.5 8.32612C10.78 8.32612 9.30343 9.36679 8.66443 10.8526C9.22927 10.7356 9.81409 10.6739 10.4131 10.6739C12.8373 10.6739 15.0304 11.6816 16.5965 13.2997Z" fill="#0052B4"/>
</svg>
