<svg width="19" height="20" viewBox="0 0 19 20" fill="none" xmlns="http://www.w3.org/2000/svg">
<path d="M16.0559 3.49444C14.3919 1.82974 12.18 0.913086 9.82654 0.913086C9.8264 0.913086 9.82584 0.913086 9.8257 0.913086C8.66174 0.913225 7.52743 1.13868 6.45452 1.58335C5.38147 2.02802 4.42014 2.67097 3.59699 3.49444C1.93309 5.15901 1.0168 7.37223 1.0168 9.72634C1.0168 11.1302 1.3554 12.5254 1.99699 13.7684L0.516176 18.0005C0.41181 18.299 0.485684 18.6235 0.709386 18.8471C0.865866 19.0038 1.07183 19.087 1.28361 19.087C1.37439 19.087 1.46615 19.0717 1.55568 19.0404L5.78605 17.5591C7.0286 18.201 8.4232 18.5397 9.82654 18.5397C12.1797 18.5397 14.3919 17.6229 16.0559 15.9584C17.7198 14.2938 18.6363 12.0806 18.6363 9.72647C18.6363 7.37223 17.72 5.15901 16.0559 3.49444ZM15.3025 15.2046C13.8399 16.668 11.895 17.4737 9.82654 17.4737C8.56111 17.4737 7.304 17.1607 6.19104 16.568C5.98924 16.4607 5.75071 16.4423 5.53657 16.5173L1.69317 17.8629L3.03843 14.018C3.11341 13.8035 3.09484 13.5649 2.98756 13.3631C2.39532 12.25 2.08223 10.9924 2.08223 9.72634C2.08223 7.65703 2.88777 5.71141 4.35042 4.24818C5.81294 2.78508 7.75751 1.97921 9.82584 1.97893H9.82654C11.8952 1.97893 13.8399 2.7848 15.3025 4.24818C16.7653 5.71141 17.5708 7.6569 17.5708 9.72634C17.5708 11.7958 16.7653 13.7414 15.3025 15.2046Z" fill="white"/>
<path d="M13.1005 10.5135C12.6952 10.1081 12.0357 10.1081 11.6305 10.5135L11.1872 10.957C10.0866 10.357 9.19596 9.46599 8.59609 8.36492L9.03934 7.9215C9.44475 7.51607 9.44475 6.85634 9.03934 6.45091L7.84488 5.25598C7.43961 4.85055 6.78015 4.85055 6.37488 5.25598L5.41937 6.21187C4.87203 6.75942 4.84473 7.70076 5.34244 8.86256C5.7746 9.87128 6.56546 10.98 7.56934 11.9843C8.57322 12.9885 9.68148 13.7797 10.6898 14.212C11.2416 14.4486 11.7434 14.5666 12.1771 14.5666C12.6563 14.5666 13.0521 14.4225 13.3394 14.1351L14.2949 13.1791V13.1792C14.4913 12.9827 14.5994 12.7216 14.5994 12.4439C14.5994 12.166 14.4913 11.9049 14.2949 11.7086L13.1005 10.5135ZM12.586 13.3814C12.4298 13.5376 11.9494 13.5924 11.1096 13.2324C10.2228 12.8522 9.2331 12.1412 8.32277 11.2305C7.41244 10.3198 6.70184 9.32983 6.3218 8.44271C5.96185 7.60259 6.0166 7.12187 6.1728 6.9656L7.11002 6.02801L8.26761 7.18621L7.71279 7.74138C7.46192 7.99235 7.40136 8.37296 7.56227 8.68854C8.29173 10.1195 9.43338 11.2616 10.8637 11.9913C11.1793 12.1523 11.5598 12.0919 11.8107 11.8407L12.3655 11.2857L13.5232 12.4439L12.586 13.3814Z" fill="white"/>
</svg>
