<svg id="Layer_1" data-name="Layer 1" xmlns="http://www.w3.org/2000/svg" viewBox="0 0 170 45.49"><defs><style>.cls-1,.cls-2{fill:#1d1d1b}.cls-2,.cls-3{fill-rule:evenodd}.cls-3,.cls-4{fill:#706f6f}.cls-5{fill:#fff}.cls-6{fill:#009fa0}.cls-7{fill:#0072bb}.cls-8{fill:#009fe3}</style></defs><title>Untitled-1</title><path class="cls-1" d="M65.44 42.91h.84v-7.33h.02l2.45 7.33h.93l2.45-7.33h.03v7.33H73v-8.33h-1.4l-2.36 7.09h-.03l-2.36-7.09h-1.41v8.33zm12.78 0H79v-5.74h-.82v2.37c0 1-.53 2.69-1.62 2.69-.85 0-.85-.88-.85-1.87v-3.19h-.82v4.1c0 1 .48 1.77 1.47 1.77a1.8 1.8 0 0 0 1.79-1.46v1.33z"/><path class="cls-2" d="M84.08 42.91h.82v-8.33h-.82v3.52a1.49 1.49 0 0 0-1.53-1.1c-1.41 0-2 1.51-2 3.05 0 1.82.58 3 2 3a1.56 1.56 0 0 0 1.5-1.11v1zm-2.55-2.67c0-1.22.24-2.52 1.22-2.52s1.33 1.06 1.33 2.34c0 1-.41 2.29-1.35 2.29s-1.19-1.35-1.19-2.11zm9.02 1.96a3.76 3.76 0 0 1-1.13.16c-1.65 0-2-1.65-2-2.52v-.34h3.31v-.28a1.93 1.93 0 0 0-2-2.18c-1.53 0-2.24 1.1-2.24 2.81 0 2.12 1 3.2 2.8 3.2a4.47 4.47 0 0 0 1.32-.17v-.68zm-3.11-3.39a1.22 1.22 0 0 1 1.21-1.09 1.07 1.07 0 0 1 1.1 1.09zm7.87 6.68h.82V42a1.48 1.48 0 0 0 1.53 1c1.41 0 2-1.51 2-3.05 0-1.82-.58-3-2-3a1.56 1.56 0 0 0-1.5 1.11v-1h-.82v8.33zm.82-5.49c0-1 .4-2.29 1.35-2.29s1.19 1.38 1.19 2.11c0 1.22-.24 2.52-1.22 2.52s-1.32-1.05-1.32-2.34zm7.87 2.91h.8v-4c0-.72-.15-1.85-1.93-1.85-1.57 0-2.05.88-2.06 1.61h.92c.06-.45.24-.92 1.17-.92a1 1 0 0 1 1.05.8 10.34 10.34 0 0 1 0 1.1 3 3 0 0 1-.57 0c-1 0-2.74.45-2.74 1.79A1.45 1.45 0 0 0 102.2 43a2 2 0 0 0 1.76-.89v.76zm0-2.61a2.19 2.19 0 0 1-.22 1.16 1.52 1.52 0 0 1-1.34.89.79.79 0 0 1-.81-.83c0-1 1.28-1.22 1.88-1.22z"/><path class="cls-1" d="M106.7 42.91h.82v-2.38c0-1.54.64-2.62 1.94-2.62V37a1.93 1.93 0 0 0-1.92 1.24v-1.07h-.82v5.75z"/><path class="cls-2" d="M113.37 42.91h.8v-4c0-.72-.15-1.85-1.93-1.85-1.57 0-2.05.88-2.06 1.61h.92c.06-.45.24-.92 1.17-.92a1 1 0 0 1 1.05.8 10.36 10.36 0 0 1 0 1.1 3 3 0 0 1-.57 0c-1 0-2.74.45-2.74 1.79a1.45 1.45 0 0 0 1.58 1.56 2 2 0 0 0 1.76-.89v.76zm0-2.61a2.19 2.19 0 0 1-.22 1.16 1.52 1.52 0 0 1-1.34.89.78.78 0 0 1-.81-.83c0-1 1.28-1.22 1.88-1.22z"/><path class="cls-1" d="M119.2 42.91h.8v-2.37c0-1 .48-2.69 1.44-2.69s.84.88.84 1.87v3.19h.82v-2.37c0-1 .47-2.69 1.44-2.69s.85.87.85 1.87v3.19h.82v-4.1c0-1-.49-1.77-1.47-1.77a1.78 1.78 0 0 0-1.63 1.32 1.31 1.31 0 0 0-1.46-1.36 1.69 1.69 0 0 0-1.65 1.49v-1.32h-.82v5.75z"/><path class="cls-2" d="M131.89 42.2a3.76 3.76 0 0 1-1.13.16c-1.65 0-2-1.65-2-2.52v-.34H132v-.28a1.93 1.93 0 0 0-2-2.22c-1.53 0-2.24 1.1-2.24 2.81 0 2.12 1 3.2 2.8 3.2a4.47 4.47 0 0 0 1.32-.17v-.64zm-3.11-3.39a1.22 1.22 0 0 1 1.22-1.09 1.07 1.07 0 0 1 1.1 1.09z"/><path class="cls-1" d="M133.59 42.91h.82v-8.33h-.82v8.33zm2.83 0h.82v-2.37c0-1 .54-2.69 1.63-2.69.84 0 .84.88.84 1.87v3.19h.82v-4.1c0-1-.49-1.77-1.47-1.77a1.82 1.82 0 0 0-1.8 1.46v-3.92h-.82v8.33z"/><path class="cls-2" d="M144.39 43c1.7 0 2.37-1.32 2.37-3s-.66-3-2.37-3-2.34 1.34-2.34 3 .65 3 2.34 3zM143 40c0-1.44.47-2.32 1.4-2.32s1.42.88 1.42 2.32-.48 2.32-1.42 2.32-1.4-.83-1.4-2.32z"/><path class="cls-1" d="M148.26 42.91h.82v-2.38c0-1.54.64-2.62 1.94-2.62V37a1.93 1.93 0 0 0-1.92 1.24v-1.07h-.82v5.75z"/><path class="cls-3" d="M50.34 29.93V13c0-2.25-.91-2.46-2.48-2.46V10h7.44c3.7 0 6.7.64 6.7 5.16 0 5.15-4.52 5.15-7.62 5.15h-1.5v9.61zm2.54-16.32v5.54h1.54c3 0 5-.57 5-4 0-3-1.54-4-4.07-4-2.28 0-2.42.12-2.42 2.46z"/><path class="cls-4" d="M81.56 29.93V11.15h-1.74c-2.9 0-3.33 1.23-3.61 2.9h-.71l.2-4.07h14.25l.2 4.07h-.71c-.17-1.89-1-2.9-3.81-2.9h-1.54v18.78z"/><path class="cls-3" d="M96.24 19.81v10.12h-2.55V13c0-2.25-.91-2.46-2.48-2.46V10h7.54c3.07 0 6.37.84 6.37 4.58s-3 4.85-5 5l6 10.33h-3l-5.71-10.1zm0-6.68v5.51c3.3 0 6.23-.33 6.23-4.07 0-2.55-2.11-3.41-4.38-3.41-1.71 0-1.85.36-1.85 2zm16.05-.41v14.47-14.47zm-2.57 14.79a6.38 6.38 0 0 0 0-.64V13c0-2.25-.91-2.46-2.48-2.46V10h5v19.93h-2.57v-2.42z"/><path class="cls-4" d="M120 29.93h-1.69V13.04c0-2.25-.94-2.46-2.48-2.46V10h5.92l5.58 17L133 10h3.58v19.93H134V11.72l-6 18.21h-2.08L120 11.72v18.21zM68.42 13.42l-3.19 9.13h6.34l-3.16-9.13zM61 29.93l6.3-17.47c.37-1.62-.47-1.79-1.84-1.8v-.56h4.3l7.16 19.83h-2.7c-.27-.73-.82-2.19-.9-2.43L72 23.72h-7.17l-2.12 6.21zm85.3-16.51l-3.19 9.13h6.34l-3.16-9.13zm-7.41 16.51l6.3-17.47c.37-1.62-.47-1.79-1.84-1.8v-.56h4.3l7.16 19.83h-2.7c-.27-.73-.82-2.19-.9-2.43l-1.34-3.77h-7.14l-2.12 6.21z"/><path class="cls-3" d="M160.1 19.81v10.12h-2.55V13c0-2.25-.91-2.46-2.47-2.46V10h7.54c3.07 0 6.37.84 6.37 4.58s-3 4.85-5 5l6 10.33h-3l-5.69-10.12zm0-6.68v5.51c3.3 0 6.23-.33 6.23-4.07 0-2.55-2.11-3.41-4.38-3.41-1.71 0-1.85.36-1.85 2z"/><path class="cls-5" d="M22.53 1c1 5.43.43 12.14-1 19.26a43.34 43.34 0 0 1-1.39 5.22c8.17-2 14.12-5.94 15.23-11.56 1-5-4.94-10.17-12.87-12.92zM3.91 40.27A48.11 48.11 0 0 0 12 30.33c-3.84.81-7.87 1.49-12 2V27a66.45 66.45 0 0 0 8.49.14c1.91-.08 3.78-.23 5.58-.46a48.18 48.18 0 0 0 4.38-12.46A36.81 36.81 0 0 0 18.65 0H29c4.17 1.15 8.18 3 10.43 5v13.55c-3.87 4.2-11.27 7.57-20.43 10.08a59.28 59.28 0 0 1-6.43 11.64z"/><path class="cls-6" d="M39.44 0H29c4.17 1.15 8.18 3 10.43 5V0z"/><path class="cls-7" d="M22.53 1c1 5.43.43 12.14-1 19.26a43.34 43.34 0 0 1-1.39 5.22c8.17-2 14.12-5.94 15.23-11.56 1-5-4.94-10.17-12.87-12.92zM0 27a66.45 66.45 0 0 0 8.49.14c1.91-.08 3.78-.23 5.58-.46a48.18 48.18 0 0 0 4.38-12.46A36.81 36.81 0 0 0 18.65 0H0v27z"/><path class="cls-8" d="M0 40.27h3.91A48.11 48.11 0 0 0 12 30.33c-3.84.81-7.87 1.49-12 2v7.91z"/><path class="cls-6" d="M39.44 40.27V18.55c-3.88 4.2-11.28 7.57-20.44 10.08a59.28 59.28 0 0 1-6.43 11.64z"/></svg>