<svg width="45" height="13" viewBox="0 0 45 13" fill="none" xmlns="http://www.w3.org/2000/svg">
<path d="M6.14187 3.67254C5.64325 3.41371 5.10809 3.27744 4.56204 3.27744C4.01806 3.276 3.52464 3.41503 3.15317 3.71928C3.03471 3.81626 2.92 3.92741 2.80815 4.0507C2.76784 3.96057 2.71962 3.87454 2.6626 3.79451C2.41841 3.44135 1.96957 3.26915 1.51113 3.27732C1.04829 3.26915 0.598673 3.46033 0.347228 3.81337C0.0935791 4.16245 0.00220338 4.60573 0 5.14322V11.2785C0 11.7713 0.115483 12.2044 0.413069 12.5277C0.683567 12.8273 1.08497 12.9996 1.50608 12.9996H1.52656C1.9579 13.0043 2.37097 12.8375 2.65171 12.5366C2.95876 12.2139 3.07864 11.7774 3.07864 11.2785V9.43774C3.07864 8.78429 3.10055 8.23334 3.14306 7.78862C3.18545 7.34942 3.26075 6.97944 3.36457 6.68035C3.4654 6.391 3.59553 6.20463 3.73163 6.0954C3.85955 5.99518 4.01456 5.9375 4.27262 5.93546C4.45472 5.93414 4.69308 5.97415 4.97965 6.06427C5.32104 6.16665 5.48993 6.22493 5.71078 6.23298C6.05296 6.23575 6.37465 6.08795 6.61663 5.86156C6.88493 5.61883 7.0275 5.27528 7.02231 4.92488C7.03165 4.39304 6.6712 3.93414 6.14187 3.67254ZM8.98501 0.0964776C8.5814 0.0937138 8.19542 0.242837 7.9038 0.505154C7.59455 0.771556 7.42851 1.15319 7.43292 1.55033C7.42851 1.9679 7.58133 2.36372 7.90224 2.63145C8.19542 2.88283 8.58218 3.01573 8.98501 3.01296H8.99888C9.39004 3.01296 9.76721 2.87333 10.0502 2.62327C10.3645 2.35555 10.5151 1.9631 10.5114 1.55033C10.5158 1.13012 10.363 0.728898 10.0311 0.464538C9.74168 0.227336 9.36957 0.0937138 8.98501 0.0964776ZM10.0824 3.73346C9.80169 3.43726 9.3894 3.27264 8.96026 3.27792C8.53189 3.2718 8.11947 3.43858 7.84314 3.73947C7.54776 4.05742 7.43292 4.48641 7.43292 4.97367V11.2784C7.43292 11.7617 7.5484 12.1901 7.83795 12.5148C8.10482 12.8225 8.51206 12.9994 8.939 12.9994C8.94639 12.9994 8.95287 12.9994 8.96026 12.9987C9.3916 13.0034 9.8061 12.8346 10.0868 12.5309C10.3917 12.2082 10.5116 11.7731 10.5108 11.2783L10.5114 4.90914H10.5108C10.5138 4.45601 10.3829 4.0406 10.0824 3.73346Z" fill="#E4E4E4"/>
<path d="M3.01568 0.0964778C2.61207 0.093714 2.22609 0.242837 1.93511 0.504553C1.62586 0.771556 1.45918 1.15319 1.46423 1.55034C1.45918 1.96718 1.61199 2.36372 1.93291 2.63072C2.22609 2.88223 2.61349 3.01573 3.01568 3.01236H3.03032C3.42071 3.01236 3.79723 2.87345 4.08082 2.62327C4.39513 2.35555 4.54651 1.9631 4.54211 1.55034C4.54729 1.13012 4.39435 0.728898 4.06255 0.464538C3.77312 0.226615 3.40088 0.093714 3.01568 0.0964778Z" fill="#E4E4E4"/>
<path d="M23.644 3.27733C23.3121 3.27661 22.9904 3.35315 22.747 3.55863C22.5606 3.71653 22.415 3.9124 22.3317 4.13265C22.2638 4.31158 22.1826 4.57389 22.0817 4.93451L20.9967 8.52271L20.0478 5.27745C19.9068 4.81182 19.7986 4.48642 19.7115 4.27637C19.6077 4.02487 19.4307 3.80329 19.2026 3.61283C18.919 3.37695 18.5403 3.27589 18.1375 3.27733C17.7398 3.27589 17.3633 3.37755 17.0826 3.61283C16.8559 3.80257 16.6797 4.01874 16.5825 4.26688C16.505 4.46346 16.399 4.79151 16.2542 5.27481L15.306 8.5173L14.2336 4.92838C14.0794 4.41191 13.9382 4.04121 13.7709 3.77481C13.545 3.41552 13.0998 3.27048 12.6566 3.27733C12.2765 3.27324 11.9066 3.42033 11.6477 3.67856C11.3933 3.92189 11.242 4.24453 11.2455 4.57798C11.2507 4.86805 11.3544 5.211 11.5401 5.72542L13.3656 11C13.4168 11.1444 13.4863 11.3349 13.5747 11.5755C13.6697 11.8365 13.7837 12.0689 13.919 12.273C14.0645 12.494 14.2596 12.6796 14.4966 12.807C14.743 12.9405 15.0317 12.9996 15.3344 12.9989C15.3476 12.9996 15.3599 12.9996 15.3731 12.9996C15.928 12.9996 16.4427 12.7841 16.7051 12.3557C16.9303 11.9992 17.1154 11.5227 17.2871 10.9053L18.144 7.95482L19.0323 10.9126C19.1427 11.3025 19.2472 11.6258 19.3482 11.8839C19.4608 12.1795 19.645 12.4398 19.8899 12.6491C20.1759 12.8932 20.5633 13.0017 20.9741 12.9989C21.3719 13.001 21.7455 12.9012 22.0276 12.6695C22.2586 12.4804 22.4399 12.2526 22.5525 11.9964C22.6469 11.7808 22.7734 11.4535 22.9349 11.0034L24.7794 5.72074C24.9535 5.24969 25.0527 4.88908 25.0551 4.57798C25.0586 4.23503 24.9029 3.9029 24.6368 3.66221C24.3758 3.41696 24.0161 3.27397 23.644 3.27733Z" fill="white"/>
<path d="M33.2291 9.2116C32.952 9.21088 32.6712 9.27589 32.4571 9.45482C32.1647 9.72266 31.938 9.92526 31.7685 10.0703C31.6084 10.2079 31.4309 10.3386 31.237 10.4593C31.0586 10.5719 30.8809 10.6504 30.701 10.7006C30.5211 10.7501 30.3144 10.7779 30.0789 10.7779C29.747 10.7765 29.4634 10.702 29.1927 10.5448C28.9311 10.3929 28.7168 10.1686 28.5414 9.83718C28.4216 9.60875 28.3396 9.35123 28.301 9.06044H32.2781C32.9083 9.059 33.428 8.97705 33.8463 8.767C34.3632 8.50408 34.5533 7.96371 34.5489 7.3558C34.5497 6.69562 34.3734 6.04638 34.0328 5.42405C33.6848 4.78358 33.1534 4.25823 32.4646 3.86385C31.7606 3.45722 30.9214 3.26123 29.9804 3.26123C29.2559 3.26123 28.5819 3.37587 27.9706 3.60898C27.3609 3.84078 26.836 4.1824 26.4141 4.62436C25.9923 5.06428 25.6757 5.59024 25.4623 6.19082C25.2495 6.78923 25.1434 7.43595 25.1434 8.12329C25.1428 9.57174 25.5719 10.7782 26.4609 11.6667C27.3477 12.5601 28.6074 13 30.128 13H30.1449C30.816 13 31.4249 12.9138 31.9652 12.7349C32.488 12.5621 32.9354 12.3405 33.3023 12.0619C33.6562 11.7934 33.9333 11.504 34.124 11.1854C34.3039 10.8845 34.4142 10.5978 34.4166 10.3016C34.4201 10.0061 34.3112 9.70379 34.07 9.49988C33.8455 9.30245 33.5369 9.20884 33.2291 9.2116ZM28.8266 5.99603C29.1211 5.69442 29.4421 5.56092 29.9048 5.55611C30.4028 5.56092 30.736 5.69779 31.0249 5.9899C31.2436 6.21425 31.411 6.56128 31.4964 7.04794H28.3352C28.4332 6.57294 28.6057 6.2265 28.8266 5.99603Z" fill="white"/>
<path d="M44.498 5.55205C44.1625 4.83768 43.6719 4.26822 43.0343 3.87721C42.3991 3.4868 41.6519 3.29298 40.8352 3.2937C40.1342 3.2937 39.5157 3.41698 38.998 3.68471C38.7641 3.80607 38.5346 3.95243 38.31 4.12126V1.63989C38.31 1.18435 38.2054 0.7818 37.9408 0.470697C37.6769 0.155508 37.2521 -0.00575133 36.8172 0.000256848C36.3874 -0.00779411 35.9663 0.173773 35.7153 0.495811C35.4537 0.823857 35.3579 1.24407 35.3571 1.73686L35.3563 11.3596C35.3571 11.8245 35.4609 12.2325 35.7372 12.5436C35.9917 12.8365 36.3857 12.9999 36.7944 12.9999H36.817C37.2308 13.0046 37.6306 12.842 37.9005 12.5531C38.0422 12.4047 38.1424 12.2312 38.2081 12.04C38.2081 12.04 38.2089 12.04 38.2089 12.0414C38.3851 12.202 38.5892 12.3532 38.8238 12.4969C39.0803 12.6548 39.3809 12.7748 39.7186 12.8642C40.0637 12.9551 40.4292 12.9999 40.8109 12.9999C41.4359 12.9999 42.0252 12.8752 42.5552 12.6229C43.0829 12.3736 43.5355 12.0156 43.9004 11.5642C44.2645 11.1142 44.5372 10.5868 44.7229 9.99245C44.9086 9.39596 45 8.74804 45 8.05061C44.9987 7.10552 44.8372 6.26979 44.498 5.55205ZM41.3858 9.95772C41.0246 10.3706 40.6774 10.5298 40.2402 10.5352C39.6772 10.5291 39.2905 10.3583 38.9432 9.9707C38.6128 9.59375 38.4182 9.01288 38.4182 8.18663C38.4182 7.62751 38.5088 7.16188 38.6763 6.78637C38.848 6.40281 39.0681 6.13508 39.3342 5.95484C39.6033 5.77243 39.8891 5.68711 40.2401 5.68507C40.5777 5.68711 40.8411 5.77111 41.0859 5.94667C41.3322 6.12691 41.5325 6.38454 41.683 6.75525C41.833 7.11982 41.9133 7.57536 41.9133 8.12307C41.9137 8.9701 41.7178 9.56996 41.3858 9.95772Z" fill="white"/>
</svg>
